<svg width="1024" height="1024" viewBox="0 0 1024 1024" fill="none" xmlns="http://www.w3.org/2000/svg">
  <defs>
    <linearGradient id="emeraldGradient" x1="0" y1="0" x2="1024" y2="1024" gradientUnits="userSpaceOnUse">
      <stop offset="0" stop-color="#0F5132"/>
      <stop offset="1" stop-color="#052c1b"/>
    </linearGradient>
    <linearGradient id="goldGradient" x1="0" y1="0" x2="0" y2="100%">
      <stop offset="0" stop-color="#FCD34D"/>
      <stop offset="1" stop-color="#D97706"/>
    </linearGradient>
    <linearGradient id="lanternGold" x1="0%" y1="0%" x2="100%" y2="0%">
      <stop offset="0%" stop-color="#B8860B" />
      <stop offset="50%" stop-color="#FAE69E" />
      <stop offset="100%" stop-color="#B8860B" />
    </linearGradient>
  </defs>
  <g transform="translate(512, 480)">
    <path d="M -80 -360 A 360 360 0 1 0 -80 360 A 310 310 0 1 1 -80 -360 Z" fill="#E2E8F0" fill-opacity="0.98" transform="translate(40, 0)"/>
    <g transform="translate(0, 70)">
        <path d="M -160 -60 C -120 -60 -80 -40 -10 20 L -10 180 C -80 120 -120 100 -160 100 Z" fill="url(#goldGradient)"/>
        <path d="M 160 -60 C 120 -60 80 -40 10 20 L 10 180 C 80 120 120 100 160 100 Z" fill="url(#goldGradient)"/>
    </g>
    <g transform="translate(0, -200) scale(0.65)">
        <path d="M 0 -160 L 45 -45 L 160 0 L 45 45 L 0 160 L -45 45 L -160 0 L -45 -45 Z" fill="none" stroke="#FCD34D" stroke-width="12" stroke-linejoin="round"/>
        <rect x="-30" y="-30" width="60" height="60" fill="#FCD34D" transform="rotate(45)" fill-opacity="0.3"/>
        <circle r="15" fill="#FCD34D"/>
    </g>
    <g transform="translate(0, 360)">
        <circle cx="0" cy="5" r="4" fill="#FCD34D"/><circle cx="0" cy="18" r="4" fill="#FCD34D"/><circle cx="0" cy="31" r="4" fill="#FCD34D"/>
        <g transform="translate(0, 70) scale(0.8)">
            <path d="M -40 0 L 40 0 L 20 -30 L -20 -30 Z" fill="url(#lanternGold)"/>
            <path d="M -45 0 L 45 0 L 35 70 L -35 70 Z" fill="#FFF9C4" fill-opacity="0.8"/>
            <rect x="-45" y="0" width="90" height="70" fill="none" stroke="url(#lanternGold)" stroke-width="8" rx="5"/>
            <line x1="0" y1="0" x2="0" y2="70" stroke="url(#lanternGold)" stroke-width="4"/>
            <path d="M -40 70 L 40 70 L 50 90 L -50 90 Z" fill="url(#lanternGold)"/>
        </g>
    </g>
  </g>
</svg>
